<?xml version="1.0" encoding="utf-8"?>
<!-- Generator: Adobe Illustrator 22.1.0, SVG Export Plug-In . SVG Version: 6.00 Build 0)  -->
<svg version="1.1" id="Layer_1" xmlns="http://www.w3.org/2000/svg" xmlns:xlink="http://www.w3.org/1999/xlink" x="0px" y="0px"
	 viewBox="0 0 334.9 334.9" style="enable-background:new 0 0 334.9 334.9;" xml:space="preserve">
<style type="text/css">
	.st0{fill:#2F80ED;}
	.st1{fill:#CF7C40;}
	.st2{fill:#EFEEEE;}
	.st3{fill:#22A5D0;}
	.st4{fill:#EDC55D;}
	.st5{fill:#E7BF5A;}
	.st6{fill:#D5D8DA;}
	.st7{fill:#E1574C;}
</style>
<circle class="st0" cx="167.5" cy="167.5" r="167.5"/>
<g>
	<path class="st1" d="M66.7,146.7l100.7-59.8l100.7,59.8v88.2H66.7V146.7z"/>
	<path class="st2" d="M88.7,71.1h157.4c3.5,0,6.3,2.8,6.3,6.3v110.2c0,3.5-2.8,6.3-6.3,6.3H88.7c-3.5,0-6.3-2.8-6.3-6.3V77.4
		C82.5,73.9,85.3,71.1,88.7,71.1z"/>
	<path class="st3" d="M232.9,83.7L243,71.1h3.1c3.5,0,6.3,2.8,6.3,6.3v6.3H232.9z M151.1,83.7l10.1-12.6h22l-10.1,12.6H151.1z
		 M82.5,83.7v-6.3c0-3.5,2.8-6.3,6.3-6.3h15.7L94.4,83.7H82.5z"/>
	<path class="st4" d="M268.2,253.7c0,5.2-4.3,9.4-9.4,9.4H76.2c-5.2,0-9.4-4.3-9.4-9.4v-14.2l0,0v-92.9l100.7,44.1l100.7-44.1V253.7
		L268.2,253.7z"/>
	<path class="st5" d="M268.2,253.7c0,5.2-4.3,9.4-9.4,9.4H76.2c-5.2,0-9.4-4.3-9.4-9.4v-18.9l201.5-88.2V253.7L268.2,253.7z"/>
	<g>
		<g>
			<path class="st6" d="M130.8,127l1.3,6.6L122,117.9l-14.2,22c-0.2,2,9,3.6,20.3,3.6s20.5-1.6,20.5-3.6l-12.4-18.4L130.8,127z
				 M132,118.3c2.2,0,3.9-1.7,3.9-3.9s-1.7-3.9-3.9-3.9s-3.9,1.7-3.9,3.9S129.8,118.3,132,118.3z M164.3,116.8h63
				c1.7,0,3.1-1.4,3.1-3.1s-1.4-3.1-3.1-3.1h-63c-1.7,0-3.1,1.4-3.1,3.1S162.6,116.8,164.3,116.8z M227.3,123.1h-63
				c-1.7,0-3.1,1.4-3.1,3.1s1.4,3.1,3.1,3.1h63c1.7,0,3.1-1.4,3.1-3.1S229,123.1,227.3,123.1z M211.5,135.7h-47.2
				c-1.7,0-3.1,1.4-3.1,3.1c0,1.7,1.4,3.1,3.1,3.1h47.2c1.7,0,3.1-1.4,3.1-3.1C214.7,137.1,213.3,135.7,211.5,135.7z"/>
		</g>
	</g>
	<path class="st7" d="M192,83.7l10.1-12.6h22l-10.1,12.6H192z M110.2,83.7l10.1-12.6h22l-10.1,12.6H110.2z"/>
</g>
</svg>
