<svg id="Layer_1" data-name="Layer 1" xmlns="http://www.w3.org/2000/svg" viewBox="0 0 32.2 22.83"><defs><style>.cls-1{fill:#61b5e5;}.cls-2{fill:#ef4d3e;}</style></defs><title>Pingspace-Logo2</title><g id="Page-1"><g id="Landing-Page"><g id="Logo-_-White" data-name="Logo-/-White"><g id="Group-5"><g id="Group-35"><g id="Group-2"><path id="Fill-17" class="cls-1" d="M26.18,6.3A11.23,11.23,0,0,1,21,21.59a11.84,11.84,0,0,1-15.72-5A11.22,11.22,0,0,1,10.45,1.31a11.86,11.86,0,0,1,15.73,5"/><path id="Fill-19" class="cls-1" d="M24.47,19A11.14,11.14,0,0,0,26.18,6.23a11.86,11.86,0,0,0-15.73-5A11.45,11.45,0,0,0,5,6.86C15.48,5.79,21.68,10.19,24.47,19"/></g><g id="Group-27"><path id="Fill-21" class="cls-2" d="M32,4.51C31.3,3.1,28.37,3,24.36,3.94a11.67,11.67,0,0,1,1.18,1.61c1.84-.3,3.09-.16,3.43.5S28.58,8,27,9.37a12.48,12.48,0,0,1,.2,2.19c3.63-2.85,5.59-5.53,4.8-7"/><path id="Fill-23" class="cls-2" d="M7.07,19.35c-2.06.39-3.47.28-3.83-.42s.27-1.72,1.59-3A10.53,10.53,0,0,1,4.21,14h0c-3.13,2.61-4.75,5-4,6.41S4.28,22,8.74,20.8a10.93,10.93,0,0,1-1.67-1.45"/><path id="Fill-25" class="cls-2" d="M27,9.37a43.73,43.73,0,0,1-9.4,6.07A44,44,0,0,1,7.07,19.35,10.93,10.93,0,0,0,8.74,20.8,52.49,52.49,0,0,0,18.43,17a53,53,0,0,0,8.8-5.45A12.48,12.48,0,0,0,27,9.37"/></g><g id="Group-34"><path id="Fill-28" class="cls-2" d="M7,18.93c-2.07.38-3.48.28-3.85-.41s.28-1.67,1.6-2.91a9.52,9.52,0,0,1-.41-1.08c-2.05,2-3,3.71-2.42,4.82S5,20.8,8.39,20.16A11.72,11.72,0,0,1,7,18.93"/><path id="Fill-30" class="cls-2" d="M32,4.48C31.3,3.1,28.35,3,24.33,3.93a11.19,11.19,0,0,1,1,1.32c2.91-.75,5-.79,5.43.06s-1,2.65-3.68,4.62a11.12,11.12,0,0,1,.09,1.41C30.86,8.57,32.82,6,32,4.48"/><path id="Fill-32" class="cls-2" d="M27.13,9.93a52.1,52.1,0,0,1-7.71,4.53,55.08,55.08,0,0,1-6.52,2.7A34.31,34.31,0,0,1,7,18.93a11.72,11.72,0,0,0,1.41,1.23,38.22,38.22,0,0,0,5.11-1.39c1.58-.6,3.22-1.31,4.88-2.12a53,53,0,0,0,8.83-5.31,13.33,13.33,0,0,0-.08-1.41"/></g></g></g></g></g></g></svg>