<svg id="Layer_1" data-name="Layer 1" xmlns="http://www.w3.org/2000/svg" viewBox="0 0 188.83 25.06"><defs><style>.cls-1{fill:#61b5e5;}.cls-2{fill:#ef4d3e;}.cls-3{fill:#fff;}</style></defs><title>Pingspace-Logo</title><g id="Page-1"><g id="Landing-Page"><g id="Logo-_-White" data-name="Logo-/-White"><g id="Group-5"><g id="Group-35"><g id="Group-2"><path id="Fill-17" class="cls-1" d="M26.18,6.3A11.23,11.23,0,0,1,21,21.59a11.84,11.84,0,0,1-15.72-5A11.22,11.22,0,0,1,10.45,1.31a11.86,11.86,0,0,1,15.73,5"/><path id="Fill-19" class="cls-1" d="M24.47,19A11.14,11.14,0,0,0,26.18,6.23a11.86,11.86,0,0,0-15.73-5A11.45,11.45,0,0,0,5,6.86C15.48,5.79,21.68,10.19,24.47,19"/></g><g id="Group-27"><path id="Fill-21" class="cls-2" d="M32,4.51C31.3,3.1,28.37,3,24.36,3.94a11.67,11.67,0,0,1,1.18,1.61c1.84-.3,3.09-.16,3.43.5S28.58,8,27,9.37a12.48,12.48,0,0,1,.2,2.19c3.63-2.85,5.59-5.53,4.8-7"/><path id="Fill-23" class="cls-2" d="M7.07,19.35c-2.06.39-3.47.28-3.83-.42s.27-1.72,1.59-3A10.53,10.53,0,0,1,4.21,14h0c-3.13,2.61-4.75,5-4,6.41S4.28,22,8.74,20.8a10.93,10.93,0,0,1-1.67-1.45"/><path id="Fill-25" class="cls-2" d="M27,9.37a43.73,43.73,0,0,1-9.4,6.07A44,44,0,0,1,7.07,19.35,10.93,10.93,0,0,0,8.74,20.8,52.49,52.49,0,0,0,18.43,17a53,53,0,0,0,8.8-5.45A12.48,12.48,0,0,0,27,9.37"/></g><g id="Group-34"><path id="Fill-28" class="cls-2" d="M7,18.93c-2.07.38-3.48.28-3.85-.41s.28-1.67,1.6-2.91a9.52,9.52,0,0,1-.41-1.08c-2.05,2-3,3.71-2.42,4.82S5,20.8,8.39,20.16A11.72,11.72,0,0,1,7,18.93"/><path id="Fill-30" class="cls-2" d="M32,4.48C31.3,3.1,28.35,3,24.33,3.93a11.19,11.19,0,0,1,1,1.32c2.91-.75,5-.79,5.43.06s-1,2.65-3.68,4.62a11.12,11.12,0,0,1,.09,1.41C30.86,8.57,32.82,6,32,4.48"/><path id="Fill-32" class="cls-2" d="M27.13,9.93a52.1,52.1,0,0,1-7.71,4.53,55.08,55.08,0,0,1-6.52,2.7A34.31,34.31,0,0,1,7,18.93a11.72,11.72,0,0,0,1.41,1.23,38.22,38.22,0,0,0,5.11-1.39c1.58-.6,3.22-1.31,4.88-2.12a53,53,0,0,0,8.83-5.31,13.33,13.33,0,0,0-.08-1.41"/></g></g></g></g></g></g><path class="cls-3" d="M52.67,8.83a7.86,7.86,0,0,1,1.4,5v.28a7.38,7.38,0,0,1-1.38,4.73,4.68,4.68,0,0,1-3.88,1.73,4.3,4.3,0,0,1-3.74-1.91v6.26h-2.4V7.28h1.79c.11.54.22,1.13.33,1.78a5,5,0,0,1,7.88-.23Zm-6.83,1.3a6.62,6.62,0,0,0-.8,3.63,6.5,6.5,0,0,0,.83,3.68,3.23,3.23,0,0,0,5,0,6.63,6.63,0,0,0,.81-3.67,6.43,6.43,0,0,0-.82-3.66,3.25,3.25,0,0,0-5,0Z"/><path class="cls-3" d="M59.9,7.28v13H57.51v-13Z"/><path class="cls-3" d="M73.9,8.17a4.38,4.38,0,0,1,1.22,3.35v8.76H72.73V12c0-2-.92-3-2.75-3a3.25,3.25,0,0,0-1.71.48A3.8,3.8,0,0,0,67,10.72a3.56,3.56,0,0,0-.48,1.82v7.74h-2.4v-13h1.74l.33,1.9A5.16,5.16,0,0,1,70.54,7,4.71,4.71,0,0,1,73.9,8.17Z"/><path class="cls-3" d="M90.44,7.11a3.14,3.14,0,0,1-1.91,1.13l0,.08a3.61,3.61,0,0,1,1.27,2.8,3.62,3.62,0,0,1-1.38,3,5.71,5.71,0,0,1-3.74,1.12H82.9a2,2,0,0,0-1.27.39,1.23,1.23,0,0,0-.51,1,1.13,1.13,0,0,0,.49,1,2.17,2.17,0,0,0,1.29.35h4.91a3.2,3.2,0,0,1,2.41.94,3.34,3.34,0,0,1,.9,2.4A3.35,3.35,0,0,1,89.81,24a5.52,5.52,0,0,1-3.52,1H81.17a2.91,2.91,0,0,1-1.59-.46,3.48,3.48,0,0,1-1.14-1.15A2.78,2.78,0,0,1,78,22a3.29,3.29,0,0,1,.52-1.86A3.24,3.24,0,0,1,79.93,19a2.31,2.31,0,0,1-1.17-2.11,2.41,2.41,0,0,1,.53-1.58,3.24,3.24,0,0,1,1.5-1,3.33,3.33,0,0,1-1.7-3.18,3.63,3.63,0,0,1,1.38-3A6,6,0,0,1,84.33,7h.1a7.66,7.66,0,0,1,2.6.43,3.37,3.37,0,0,0,2.06-2.52h2A3.48,3.48,0,0,1,90.44,7.11ZM81.86,20.2a1.49,1.49,0,0,0-1.48,1.48,1.49,1.49,0,0,0,1.48,1.47h4.91a2.14,2.14,0,0,0,1.4-.47,1.36,1.36,0,0,0,.59-1.08,1.31,1.31,0,0,0-.44-1,1.78,1.78,0,0,0-1.22-.38Zm.39-10.75a1.85,1.85,0,0,0-.8,1.67,1.82,1.82,0,0,0,.8,1.65,4,4,0,0,0,2.15.51,4.08,4.08,0,0,0,2.17-.51,1.8,1.8,0,0,0,.81-1.65,1.84,1.84,0,0,0-.81-1.67,4,4,0,0,0-2.17-.52A3.91,3.91,0,0,0,82.25,9.45Z"/><path class="cls-3" d="M101.21,7.48A4.05,4.05,0,0,1,103,8.75a2.94,2.94,0,0,1,.62,1.81l0,.46H101.2v-.23q0-1.86-2.88-1.86c-1.9,0-2.85.57-2.85,1.7a1.21,1.21,0,0,0,.82,1.16,11.73,11.73,0,0,0,2.49.7,21.31,21.31,0,0,1,2.64.69,4.36,4.36,0,0,1,1.75,1.12,2.88,2.88,0,0,1,.73,2.06,3.64,3.64,0,0,1-1.43,3.13,6.82,6.82,0,0,1-4.1,1H98a7.3,7.3,0,0,1-2.8-.49,4.34,4.34,0,0,1-1.84-1.35,3,3,0,0,1-.62-1.92v-.56h2.36v.25c0,1.44,1.22,2.16,3.64,2.16a3.85,3.85,0,0,0,1.92-.48,1.46,1.46,0,0,0,.85-1.32A1.38,1.38,0,0,0,101,15.7a3,3,0,0,0-1.15-.61A17,17,0,0,0,98,14.68a21.78,21.78,0,0,1-2.55-.62A4,4,0,0,1,93.77,13a3,3,0,0,1-.69-2.09,3.32,3.32,0,0,1,1.43-2.84A6.48,6.48,0,0,1,98.4,7h.23A6.71,6.71,0,0,1,101.21,7.48Z"/><path class="cls-3" d="M117.26,8.83a7.92,7.92,0,0,1,1.39,5v.28a7.38,7.38,0,0,1-1.38,4.73,4.68,4.68,0,0,1-3.88,1.73,4.3,4.3,0,0,1-3.74-1.91v6.26h-2.39V7.28H109c.11.54.23,1.13.33,1.78a5,5,0,0,1,7.89-.23Zm-6.84,1.3a6.62,6.62,0,0,0-.8,3.63,6.5,6.5,0,0,0,.83,3.68,2.85,2.85,0,0,0,2.5,1.18,2.81,2.81,0,0,0,2.5-1.19,6.63,6.63,0,0,0,.81-3.67,6.43,6.43,0,0,0-.82-3.66,3.25,3.25,0,0,0-5,0Z"/><path class="cls-3" d="M131,8a3.57,3.57,0,0,1,1.26,3v6.74a1,1,0,0,0,.21.68.66.66,0,0,0,.51.21,2.2,2.2,0,0,0,1.17-.35V20a3.79,3.79,0,0,1-2,.51,2,2,0,0,1-1.63-.62,2.79,2.79,0,0,1-.59-1.72,5.15,5.15,0,0,1-4.55,2.34,4.69,4.69,0,0,1-3.19-.93,3.67,3.67,0,0,1-1.06-2.93,3.61,3.61,0,0,1,.81-2.49,5.1,5.1,0,0,1,2.7-1.31,26.06,26.06,0,0,1,5.19-.4v-1.2a2.05,2.05,0,0,0-.76-1.82,3.92,3.92,0,0,0-2.22-.52,3.73,3.73,0,0,0-2.13.53A1.74,1.74,0,0,0,124,11v.3h-2.34a6.78,6.78,0,0,1-.05-.84,2.51,2.51,0,0,1,.71-1.68,5.1,5.1,0,0,1,1.94-1.26A7.5,7.5,0,0,1,127,7h.22A6,6,0,0,1,131,8Zm-5.16,6.55a3.25,3.25,0,0,0-1.82.8,2.19,2.19,0,0,0-.46,1.48c0,1.17.89,1.75,2.67,1.75a3.51,3.51,0,0,0,1.78-.47,3.59,3.59,0,0,0,1.35-1.33,3.85,3.85,0,0,0,.51-2v-.51A22.34,22.34,0,0,0,125.87,14.59Z"/><path class="cls-3" d="M144.85,7.7a4.78,4.78,0,0,1,1.92,1.89,5.62,5.62,0,0,1,.69,2.8h-2.37a3.79,3.79,0,0,0-.8-2.52,2.84,2.84,0,0,0-2.3-.94A3.16,3.16,0,0,0,139.48,10a4.19,4.19,0,0,0-.93,2.88v1.38a5,5,0,0,0,.92,3.29,3.2,3.2,0,0,0,2.59,1.08,2.85,2.85,0,0,0,2.33-.92,3.79,3.79,0,0,0,.78-2.51h2.29A5.23,5.23,0,0,1,146,19.08a5.31,5.31,0,0,1-3.91,1.45h-.2a5.57,5.57,0,0,1-3-.8,5.22,5.22,0,0,1-2-2.25,7.69,7.69,0,0,1-.7-3.39v-.61a7.72,7.72,0,0,1,.71-3.39,5.42,5.42,0,0,1,2-2.27,5.61,5.61,0,0,1,3-.8h.2A5.71,5.71,0,0,1,144.85,7.7Z"/><path class="cls-3" d="M158.87,7.7a4.73,4.73,0,0,1,1.92,1.92,5.89,5.89,0,0,1,.69,2.9v1.8h-9.09a5.18,5.18,0,0,0,1,3.19,3.33,3.33,0,0,0,2.72,1.11,2.87,2.87,0,0,0,2.37-.94,3.42,3.42,0,0,0,.76-2.24h2.27a5,5,0,0,1-.7,2.68,4.88,4.88,0,0,1-1.93,1.78,6.13,6.13,0,0,1-2.82.63h-.1a5.54,5.54,0,0,1-4.34-1.77A6.77,6.77,0,0,1,150,14v-.5a7.67,7.67,0,0,1,.72-3.41,5.27,5.27,0,0,1,2-2.29A5.75,5.75,0,0,1,155.86,7H156A5.82,5.82,0,0,1,158.87,7.7Zm-5.32,2.12a4.27,4.27,0,0,0-1.1,2.65h6.66v-.31a3.16,3.16,0,0,0-.88-2.34,3.12,3.12,0,0,0-2.32-.89A3.23,3.23,0,0,0,153.55,9.82Z"/><path class="cls-3" d="M167.18,17.45v2.83h-2.57V17.45Z"/><path class="cls-3" d="M173.44,7.28v13h-2.39v-13Z"/><path class="cls-3" d="M187.2,8.7a6.33,6.33,0,0,1,1.63,4.61v.94a6.38,6.38,0,0,1-1.6,4.6,6.54,6.54,0,0,1-8.75,0,6.38,6.38,0,0,1-1.61-4.6v-.94A6.37,6.37,0,0,1,178.5,8.7a6.47,6.47,0,0,1,8.7,0Zm-7,1.4a5.38,5.38,0,0,0-.94,3.44V14a5.47,5.47,0,0,0,.92,3.41,3.16,3.16,0,0,0,2.66,1.19,3.21,3.21,0,0,0,2.64-1.18,5.38,5.38,0,0,0,.95-3.42v-.48a5.43,5.43,0,0,0-.93-3.41,3.16,3.16,0,0,0-2.66-1.2A3.19,3.19,0,0,0,180.21,10.1Z"/><g id="Group"><path id="Path" class="cls-1" d="M172.2,4.38a2.19,2.19,0,0,0,2.2-2.18,2.2,2.2,0,1,0-2.2,2.18Z"/><path id="Path-2" data-name="Path" class="cls-2" d="M58.69,4.38a2.18,2.18,0,1,0-2.2-2.18A2.18,2.18,0,0,0,58.69,4.38Z"/></g></svg>