<svg id="Layer_1" data-name="Layer 1" xmlns="http://www.w3.org/2000/svg" xmlns:xlink="http://www.w3.org/1999/xlink" viewBox="0 0 340.29 257.74"><defs><style>.cls-1{fill:url(#linear-gradient);}.cls-2{opacity:0.5;}.cls-10,.cls-11,.cls-12,.cls-13,.cls-23,.cls-24,.cls-25,.cls-26,.cls-27,.cls-28,.cls-29,.cls-3,.cls-30,.cls-31,.cls-32,.cls-33,.cls-36,.cls-38,.cls-4,.cls-5,.cls-6,.cls-7,.cls-8,.cls-9{fill:none;}.cls-10,.cls-11,.cls-12,.cls-13,.cls-23,.cls-24,.cls-25,.cls-26,.cls-27,.cls-28,.cls-29,.cls-3,.cls-30,.cls-31,.cls-32,.cls-33,.cls-4,.cls-5,.cls-6,.cls-7,.cls-8,.cls-9{stroke-miterlimit:10;stroke-width:2px;}.cls-3{stroke:url(#linear-gradient-2);}.cls-4{stroke:url(#linear-gradient-3);}.cls-5{stroke:url(#linear-gradient-4);}.cls-6{stroke:url(#linear-gradient-5);}.cls-7{stroke:url(#linear-gradient-6);}.cls-8{stroke:url(#linear-gradient-7);}.cls-9{stroke:url(#linear-gradient-8);}.cls-10{stroke:url(#linear-gradient-9);}.cls-11{stroke:url(#linear-gradient-10);}.cls-12{stroke:url(#linear-gradient-11);}.cls-13{stroke:url(#linear-gradient-12);}.cls-14{fill:url(#linear-gradient-13);}.cls-15,.cls-21,.cls-34,.cls-35,.cls-38,.cls-41,.cls-42,.cls-43,.cls-44,.cls-45{opacity:0.75;}.cls-15{fill:url(#radial-gradient);}.cls-16{fill:url(#linear-gradient-14);}.cls-17{fill:url(#linear-gradient-15);}.cls-18{fill:url(#linear-gradient-16);}.cls-19{fill:#612cb5;}.cls-20{fill:url(#linear-gradient-17);}.cls-21{fill:url(#linear-gradient-18);}.cls-22{fill:url(#linear-gradient-19);}.cls-23{stroke:url(#linear-gradient-20);}.cls-24{stroke:url(#linear-gradient-21);}.cls-25{stroke:url(#linear-gradient-22);}.cls-26{stroke:url(#linear-gradient-23);}.cls-27{stroke:url(#linear-gradient-24);}.cls-28{stroke:url(#linear-gradient-25);}.cls-29{stroke:url(#linear-gradient-26);}.cls-30{stroke:url(#linear-gradient-27);}.cls-31{stroke:url(#linear-gradient-28);}.cls-32{stroke:url(#linear-gradient-29);}.cls-33{stroke:url(#linear-gradient-30);}.cls-34{fill:#61b5e5;}.cls-37{fill:#ef4d3e;}.cls-39{fill:url(#linear-gradient-31);}.cls-40{fill:url(#linear-gradient-32);}.cls-41{fill:url(#linear-gradient-33);}.cls-42{fill:url(#linear-gradient-34);}.cls-43{fill:url(#linear-gradient-35);}.cls-44{fill:url(#linear-gradient-36);}.cls-45{fill:url(#linear-gradient-37);}</style><linearGradient id="linear-gradient" x1="179.32" y1="68.22" x2="288.18" y2="68.22" gradientUnits="userSpaceOnUse"><stop offset="0" stop-color="#d4b5fa"/><stop offset="1" stop-color="#9b80dd"/></linearGradient><linearGradient id="linear-gradient-2" x1="194.21" y1="55.17" x2="261.41" y2="55.17" gradientUnits="userSpaceOnUse"><stop offset="0" stop-color="#d4b5fa"/><stop offset="1" stop-color="#612cb5"/></linearGradient><linearGradient id="linear-gradient-3" x1="199.19" y1="67.26" x2="266.39" y2="67.26" xlink:href="#linear-gradient-2"/><linearGradient id="linear-gradient-4" x1="204.17" y1="79.36" x2="271.37" y2="79.36" xlink:href="#linear-gradient-2"/><linearGradient id="linear-gradient-5" x1="195.62" y1="98.44" x2="210.56" y2="72.56" xlink:href="#linear-gradient-2"/><linearGradient id="linear-gradient-6" x1="202.73" y1="94.17" x2="217.67" y2="68.29" xlink:href="#linear-gradient-2"/><linearGradient id="linear-gradient-7" x1="210.56" y1="90.61" x2="225.5" y2="64.73" xlink:href="#linear-gradient-2"/><linearGradient id="linear-gradient-8" x1="218.38" y1="86.34" x2="233.33" y2="60.46" xlink:href="#linear-gradient-2"/><linearGradient id="linear-gradient-9" x1="226.21" y1="82.07" x2="241.15" y2="56.19" xlink:href="#linear-gradient-2"/><linearGradient id="linear-gradient-10" x1="235.46" y1="77.09" x2="250.4" y2="51.21" xlink:href="#linear-gradient-2"/><linearGradient id="linear-gradient-11" x1="244.71" y1="72.11" x2="259.65" y2="46.23" xlink:href="#linear-gradient-2"/><linearGradient id="linear-gradient-12" x1="253.25" y1="67.13" x2="268.19" y2="41.25" xlink:href="#linear-gradient-2"/><linearGradient id="linear-gradient-13" x1="4.9" y1="47.48" x2="99.87" y2="47.48" xlink:href="#linear-gradient"/><radialGradient id="radial-gradient" cx="35.81" cy="32.31" r="19.47" gradientUnits="userSpaceOnUse"><stop offset="0" stop-color="#fff"/><stop offset="1" stop-color="#fff" stop-opacity="0"/></radialGradient><linearGradient id="linear-gradient-14" x1="57.76" y1="72.93" x2="160.43" y2="72.93" xlink:href="#linear-gradient"/><linearGradient id="linear-gradient-15" x1="56.37" y1="99.73" x2="114.14" y2="99.73" xlink:href="#linear-gradient"/><linearGradient id="linear-gradient-16" x1="114.14" y1="103.04" x2="160.43" y2="103.04" xlink:href="#linear-gradient"/><linearGradient id="linear-gradient-17" x1="141.9" y1="102.53" x2="158.38" y2="131.07" gradientUnits="userSpaceOnUse"><stop offset="0" stop-color="#010144"/><stop offset="1" stop-color="#9b80dd"/></linearGradient><linearGradient id="linear-gradient-18" x1="131.06" y1="115.73" x2="172.6" y2="115.73" gradientUnits="userSpaceOnUse"><stop offset="0" stop-color="#8080d1"/><stop offset="1" stop-color="#9b80dd"/></linearGradient><linearGradient id="linear-gradient-19" x1="0" y1="164.5" x2="116.75" y2="164.5" xlink:href="#linear-gradient"/><linearGradient id="linear-gradient-20" x1="16.01" y1="150.5" x2="88" y2="150.5" xlink:href="#linear-gradient-2"/><linearGradient id="linear-gradient-21" x1="21.35" y1="163.47" x2="93.35" y2="163.47" xlink:href="#linear-gradient-2"/><linearGradient id="linear-gradient-22" x1="26.69" y1="176.44" x2="98.69" y2="176.44" xlink:href="#linear-gradient-2"/><linearGradient id="linear-gradient-23" x1="17.51" y1="196.85" x2="33.47" y2="169.2" xlink:href="#linear-gradient-2"/><linearGradient id="linear-gradient-24" x1="25.14" y1="192.27" x2="41.1" y2="164.62" xlink:href="#linear-gradient-2"/><linearGradient id="linear-gradient-25" x1="33.53" y1="188.46" x2="49.5" y2="160.8" xlink:href="#linear-gradient-2"/><linearGradient id="linear-gradient-26" x1="41.92" y1="183.88" x2="57.89" y2="156.23" xlink:href="#linear-gradient-2"/><linearGradient id="linear-gradient-27" x1="50.32" y1="179.3" x2="66.28" y2="151.65" xlink:href="#linear-gradient-2"/><linearGradient id="linear-gradient-28" x1="60.24" y1="173.96" x2="76.2" y2="146.31" xlink:href="#linear-gradient-2"/><linearGradient id="linear-gradient-29" x1="70.16" y1="168.62" x2="86.12" y2="140.96" xlink:href="#linear-gradient-2"/><linearGradient id="linear-gradient-30" x1="79.32" y1="163.28" x2="95.28" y2="135.62" xlink:href="#linear-gradient-2"/><linearGradient id="linear-gradient-31" x1="215.25" y1="12.72" x2="248.39" y2="12.72" gradientTransform="translate(-56.73 194.17) rotate(-18.01)" xlink:href="#linear-gradient-17"/><linearGradient id="linear-gradient-32" x1="238.58" y1="37.54" x2="260.16" y2="37.54" gradientTransform="translate(-56.73 194.17) rotate(-18.01)" xlink:href="#linear-gradient-17"/><linearGradient id="linear-gradient-33" x1="240.72" y1="264.22" x2="178.91" y2="157.15" gradientUnits="userSpaceOnUse"><stop offset="0.22" stop-color="#9b80dd"/><stop offset="0.29" stop-color="#a287e0" stop-opacity="0.92"/><stop offset="0.44" stop-color="#b398e7" stop-opacity="0.71"/><stop offset="0.64" stop-color="#d0b5f2" stop-opacity="0.37"/><stop offset="0.85" stop-color="#efd4ff" stop-opacity="0"/></linearGradient><linearGradient id="linear-gradient-34" x1="229.08" y1="243.73" x2="179.48" y2="157.82" xlink:href="#linear-gradient-33"/><linearGradient id="linear-gradient-35" x1="220.43" y1="224.18" x2="181.67" y2="157.06" xlink:href="#linear-gradient-33"/><linearGradient id="linear-gradient-36" x1="208.82" y1="206.83" x2="180.8" y2="158.29" xlink:href="#linear-gradient-33"/><linearGradient id="linear-gradient-37" x1="200.43" y1="189.84" x2="182.88" y2="159.44" xlink:href="#linear-gradient-33"/></defs><title>Pingspace-Landing-sat-v1</title><path class="cls-1" d="M179.63,67.68l21.48,47.64a6.32,6.32,0,0,0,9,2.86l76.4-44.71a3.44,3.44,0,0,0,1.41-4.37L266.72,21.16a6.34,6.34,0,0,0-9-2.9l-76.7,45A3.44,3.44,0,0,0,179.63,67.68Z"/><g class="cls-2"><line class="cls-3" x1="194.73" y1="75.09" x2="260.89" y2="35.25"/><line class="cls-4" x1="199.71" y1="87.19" x2="265.87" y2="47.34"/><line class="cls-5" x1="204.69" y1="99.28" x2="270.86" y2="59.44"/><line class="cls-6" x1="193.31" y1="63.53" x2="212.87" y2="107.46"/><line class="cls-7" x1="200.42" y1="59.26" x2="219.99" y2="103.19"/><line class="cls-8" x1="208.25" y1="55.7" x2="227.81" y2="99.64"/><line class="cls-9" x1="216.07" y1="51.43" x2="235.64" y2="95.37"/><line class="cls-10" x1="223.9" y1="47.17" x2="243.46" y2="91.1"/><line class="cls-11" x1="233.15" y1="42.19" x2="252.71" y2="86.12"/><line class="cls-12" x1="242.4" y1="37.21" x2="261.96" y2="81.14"/><line class="cls-13" x1="250.93" y1="32.23" x2="270.5" y2="76.16"/></g><circle class="cls-14" cx="52.39" cy="47.48" r="47.48"/><circle class="cls-15" cx="35.81" cy="32.31" r="19.47"/><polygon class="cls-16" points="57.77 69.63 114.14 103.04 160.43 76.24 101.96 42.83 57.77 69.63"/><polygon class="cls-17" points="114.14 103.04 114.14 129.84 56.37 96.42 57.77 69.63 114.14 103.04"/><polygon class="cls-18" points="160.43 76.24 114.14 103.04 114.14 129.84 160.43 103.04 160.43 76.24"/><path class="cls-19" d="M174.83,98.07v.11a3.16,3.16,0,0,0,1.56,2.73h0a3.12,3.12,0,0,0,3.14,0l13-7.46a3.13,3.13,0,0,0,1.57-2.71v0a3.18,3.18,0,0,0-1.6-2.76l-.24-.14a3.15,3.15,0,0,0-3.13,0l-12.79,7.54A3.1,3.1,0,0,0,174.83,98.07Z"/><path class="cls-19" d="M133.94,97.63l-.1,0a3.18,3.18,0,0,0-1.8,2.59h0a3.13,3.13,0,0,0,1.33,2.84l12.35,8.55a3.12,3.12,0,0,0,3.12.25l0,0a3.17,3.17,0,0,0,1.8-2.64l0-.27a3.1,3.1,0,0,0-1.36-2.82L137,97.85A3.11,3.11,0,0,0,133.94,97.63Z"/><path class="cls-20" d="M115.2,127.46c.18-6.3,2.88-11.17,8.37-14.34Q142,102.47,160.49,91.9a16.14,16.14,0,0,1,9.4-2.15,16.44,16.44,0,0,1,6.74,30.78Q158.29,131,140,141.59a15.77,15.77,0,0,1-6,2.13,16.47,16.47,0,0,1-18.71-14.92C115.17,128.36,115.2,127.91,115.2,127.46Z"/><path class="cls-19" d="M101.07,140.33v.11a3.16,3.16,0,0,0,1.56,2.73h0a3.1,3.1,0,0,0,3.14,0l13-7.46a3.13,3.13,0,0,0,1.57-2.71V133a3.18,3.18,0,0,0-1.6-2.76l-.24-.14a3.13,3.13,0,0,0-3.13,0l-12.79,7.53A3.12,3.12,0,0,0,101.07,140.33Z"/><path class="cls-21" d="M131.06,123.48v.24a7.15,7.15,0,0,0,3.51,6.16h0a6.37,6.37,0,0,0,6.44.05l28.37-16.23a6.41,6.41,0,0,0,3.22-5.56V108a7.16,7.16,0,0,0-3.61-6.22l-.51-.29a6.38,6.38,0,0,0-6.42,0L134.21,118A6.41,6.41,0,0,0,131.06,123.48Z"/><path class="cls-22" d="M.33,163.92l23,51.1A6.78,6.78,0,0,0,33,218.08l81.94-48a3.71,3.71,0,0,0,1.52-4.69L93.73,114a6.77,6.77,0,0,0-9.63-3.11L1.83,159.21A3.69,3.69,0,0,0,.33,163.92Z"/><g class="cls-2"><line class="cls-23" x1="16.52" y1="171.87" x2="87.49" y2="129.13"/><line class="cls-24" x1="21.86" y1="184.84" x2="92.83" y2="142.11"/><line class="cls-25" x1="27.21" y1="197.81" x2="98.17" y2="155.08"/><line class="cls-26" x1="15" y1="159.47" x2="35.98" y2="206.59"/><line class="cls-27" x1="22.63" y1="154.89" x2="43.61" y2="202.01"/><line class="cls-28" x1="31.02" y1="151.07" x2="52.01" y2="198.19"/><line class="cls-29" x1="39.41" y1="146.49" x2="60.4" y2="193.61"/><line class="cls-30" x1="47.81" y1="141.91" x2="68.79" y2="189.03"/><line class="cls-31" x1="57.73" y1="136.57" x2="78.71" y2="183.69"/><line class="cls-32" x1="67.65" y1="131.23" x2="88.63" y2="178.35"/><line class="cls-33" x1="76.81" y1="125.89" x2="97.79" y2="173.01"/></g><path class="cls-34" d="M128.12,68.69c4.2,4.58,1.54,10.14-6.85,12.45-9.35,2.57-21.35,0-25.56-5.72-4-5.44,1.2-10.91,10.53-12.31C114.69,61.83,124.11,64.31,128.12,68.69Z"/><path class="cls-34" d="M126.33,79c4.22-2.75,5-6.76,1.79-10.26-4-4.38-13.43-6.86-21.88-5.58A18.74,18.74,0,0,0,97,66.81C113.32,67.2,122.13,71.32,126.33,79Z"/><g class="cls-35"><path class="cls-36" d="M129.69,71.11c1.95-.93,2.83-1.74,2.31-2.3s-2.09-.74-4.46-.71c.2.19.4.39.58.59A7.86,7.86,0,0,1,129.69,71.11Z"/><path class="cls-36" d="M95.22,74.67c-2.63,1.1-4,2.08-3.53,2.75s3.1.93,6.9.68a11.65,11.65,0,0,1-2.88-2.68A8,8,0,0,1,95.22,74.67Z"/><path class="cls-37" d="M135.71,68c-1-1.06-4.67-1.46-9.79-1.21a13.1,13.1,0,0,1,1.62,1.29c2.37,0,4,.2,4.46.71s-.36,1.37-2.31,2.3a5.66,5.66,0,0,1,.4,1.71C134.63,71,136.82,69.18,135.71,68Z"/><path class="cls-37" d="M98.59,78.1c-3.8.25-6.39.05-6.9-.68s.9-1.65,3.53-2.75a6.17,6.17,0,0,1-.72-1.8h0c-6.3,2.16-10.07,4.4-9.06,5.89s7.52,1.83,15.91.87A18.77,18.77,0,0,1,98.59,78.1Z"/><path class="cls-37" d="M129.69,71.11a71.42,71.42,0,0,1-13.29,4.16A118,118,0,0,1,98.59,78.1a18.77,18.77,0,0,0,2.74,1.53A139.37,139.37,0,0,0,117.6,76.7a89,89,0,0,0,12.49-3.88A5.66,5.66,0,0,0,129.69,71.11Z"/></g><g class="cls-35"><path class="cls-36" d="M95.22,76.89c.81,1.11,6.47,1,13.7-.1,2.44-.43,5-.94,7.48-1.52,10.31-2.39,16.8-5.18,15.6-6.46-.8-.85-4.85-.92-10.47-.28-2.07.29-4.33.67-6.7,1.14C103.47,71.91,94,75.26,95.22,76.89Z"/><path class="cls-36" d="M95.22,74.67c-2.63,1.1-4,2.08-3.53,2.75s3.1.93,6.9.68a11.65,11.65,0,0,1-2.88-2.68A8,8,0,0,1,95.22,74.67Z"/><path class="cls-36" d="M129.89,71.68c3.36-1.29,5.06-2.46,4.38-3.18s-3.22-.85-6.94-.59a9.71,9.71,0,0,1,.79.78A7.59,7.59,0,0,1,129.89,71.68Z"/><path class="cls-37" d="M98.59,78.1c-3.8.25-6.39.05-6.9-.68s.9-1.65,3.53-2.75a7.24,7.24,0,0,1-.5-1.06c-4.14,1.72-6.37,3.39-5.55,4.57s5.46,1.71,11.71,1.24A18,18,0,0,1,98.59,78.1Z"/><path class="cls-37" d="M135.71,68c-1-1.06-4.67-1.46-9.79-1.21a12,12,0,0,1,1.41,1.1c3.72-.26,6.31-.08,6.94.59s-1,1.89-4.38,3.18a5.81,5.81,0,0,1,.2,1.14C134.63,71,136.82,69.18,135.71,68Z"/><path class="cls-37" d="M129.89,71.68a83.72,83.72,0,0,1-10.69,3.14c-3.5.81-7,1.48-10.28,2A99.51,99.51,0,0,1,98.59,78.1a18,18,0,0,0,2.29,1.32c2.73-.2,5.74-.56,8.88-1.06,2.6-.48,5.24-1,7.84-1.66a89,89,0,0,0,12.49-3.88A5.81,5.81,0,0,0,129.89,71.68Z"/></g><path class="cls-36" d="M91.69,77.42c1.2,1.69,13,.57,24.71-2.15,2.63-.61,5-1.25,7.06-1.87l-9.15-3.79L112,70C100.31,72.33,90.51,75.76,91.69,77.42Z"/><path class="cls-38" d="M132,68.81c-1-1.09-7.36-.9-15.59.44l-2.1.36,9.15,3.79C129.49,71.57,132.91,69.78,132,68.81Z"/><path class="cls-39" d="M154.06,135.73l36.44,15.53-19.23-37a5.06,5.06,0,0,0-4.8-2.75c-5.87.42-11.45,4-15.9,9.17A9.6,9.6,0,0,0,154.06,135.73Z"/><circle class="cls-40" cx="192.03" cy="152.79" r="10.79"/><path class="cls-41" d="M54,229.25c94,31.82,175.81,40.79,234.91,7.12,75.53-47.54,56.61-95,14.24-142.37"/><path class="cls-42" d="M79.27,215.68c75.42,25.53,141.08,32.73,188.51,5.71,60.61-38.15,45.43-76.21,11.43-114.25"/><path class="cls-43" d="M103.38,202.26c58.93,20,110.22,25.58,147.28,4.47,47.36-29.81,35.49-59.55,8.93-89.27"/><path class="cls-44" d="M124.17,191c42.62,14.43,79.72,18.49,106.52,3.23,34.25-21.56,25.67-43.07,6.46-64.56"/><path class="cls-45" d="M147.42,179.91c26.69,9,49.92,11.58,66.71,2,21.44-13.5,16.07-27,4-40.43"/></svg>