<?xml version="1.0" encoding="utf-8"?>
<!-- Generator: Adobe Illustrator 22.0.0, SVG Export Plug-In . SVG Version: 6.00 Build 0)  -->
<svg version="1.1" id="Layer_1" xmlns="http://www.w3.org/2000/svg" xmlns:xlink="http://www.w3.org/1999/xlink" x="0px" y="0px"
	 viewBox="0 0 1976 488" style="enable-background:new 0 0 1976 488;" xml:space="preserve">
<style type="text/css">
	.st0{opacity:5.000000e-02;}
	.st1{fill:#FFFFFF;}
	.st2{opacity:5.000000e-02;fill:none;stroke:#FFFFFF;stroke-width:50;stroke-miterlimit:10;}
</style>
<g id="_x34_8" class="st0">
	<path class="st1" d="M24.9,105.5c2.3-1.1,5-1.5,7.7-1.5c2.7,0,5,1.1,7.7,2.3l267.6,195.4c2.7,1.2,4.2,3.9,5,6.2
		c1.1,2.7,1.1,5.8,0.8,8.1c-0.8,3.1-2.7,5.4-4.6,7.3c-1.5,1.2-4.2,2.7-7.3,3.1l-86.4,11.5l77.9,134.4c2.3,4.2,2.3,8.4,1.2,13
		c-0.4,3.5-3.5,7.3-7.3,9.6l-56.4,32.6c-3.5,2.3-8.5,3.1-12.3,1.9c-4.2-1.5-8-3.8-10.4-8.1l-77.2-134.4l-53.4,69.5
		c-1.9,1.5-4.2,3.4-6.9,4.2c-2.3,0.4-5.4,1.1-7.7,0c-2.7-0.8-5-2-6.9-4.2c-1.9-1.9-3.1-4.6-3.1-7.7L18,119.3c0-2.7,0-5.8,1.1-7.7
		C20.7,109.4,22.2,107,24.9,105.5L24.9,105.5z"/>
</g>
<circle class="st2" cx="609.9" cy="33" r="146"/>
<g id="Layer_x0020_1" class="st0">
	<polygon class="st1" points="1649.7,319.6 1692.9,363.2 1692.7,363.6 1721.6,392.3 1818.1,296.6 1745.3,232.4 1961.4,172.1 
		1930.1,395.6 1864.4,337.4 1721.2,479.3 1679.4,437.1 1648.9,406.9 1527.5,527.3 1484.1,483.6 	"/>
</g>
<rect x="928.7" y="171.8" transform="matrix(0.7071 -0.7071 0.7071 0.7071 79.4238 878.7505)" class="st2" width="343.5" height="343.5"/>
</svg>
