<svg id="Layer_1" data-name="Layer 1" xmlns="http://www.w3.org/2000/svg" viewBox="0 0 64.5 64.5"><defs><style>.cls-1{fill:none;stroke:#193651;stroke-miterlimit:10;}.cls-2{fill:#d3d7da;}.cls-3{fill:#193651;}.cls-4{fill:#f16051;}.cls-5{fill:#fdbf5e;}.cls-6{fill:#2ea2db;}</style></defs><title>report</title><circle class="cls-1" cx="32.25" cy="32.25" r="31.75"/><polygon class="cls-2" points="37.26 25.14 44.65 25.14 37.26 17.75 37.26 25.14"/><path class="cls-3" d="M45.15,49H19.35V17.25H37.81l7.34,7.34ZM20.34,48H44.16V25l-6.75-6.75H20.34Z"/><path class="cls-4" d="M24.91,29.55a4.46,4.46,0,0,0,2.43.7,4.56,4.56,0,0,0,4.46-3.62l-4.26-.55Z"/><path class="cls-5" d="M32,25.73v-.24A4.5,4.5,0,0,0,27.74,21v4.22Z"/><path class="cls-6" d="M26.89,21a4.55,4.55,0,0,0-2.68,7.94l2.63-3.52V21Z"/><rect class="cls-3" x="28.28" y="43.84" width="0.99" height="0.99"/><rect class="cls-4" x="23.92" y="43.15" width="2.33" height="2.33"/><rect class="cls-3" x="28.28" y="39.38" width="0.99" height="0.99"/><rect class="cls-4" x="23.92" y="38.68" width="2.33" height="2.33"/><rect class="cls-3" x="28.28" y="34.91" width="0.99" height="0.99"/><rect class="cls-3" x="30.61" y="43.84" width="9.92" height="0.99"/><rect class="cls-3" x="30.61" y="39.38" width="9.92" height="0.99"/><rect class="cls-3" x="30.61" y="34.91" width="9.92" height="0.99"/><rect class="cls-4" x="23.92" y="34.22" width="2.33" height="2.33"/></svg>